# xmcd CD database file
#
# Track frame offsets:
#	150
#	7335
#	11958
#	24823
#	36005
#	45393
#	54340
#	61760
#	72063
#	82738
#	87865
#	96630
#	105368
#	117113
#	125628
#	135943
#	147005
#	156008
#	168540
#	169278
#	169958
#	170653
#	171465
#	172265
#	173068
#	188478
#	201650
#	209223
#	217108
#	226710
#	235158
#	244313
#	254050
#	263488
#	272920
#	282545
#
# Disc length: 3861 seconds
#
# Revision: 0
# Processed by: cddbd v1.4PL0 Copyright (c) Steve Scherf et al.
# Submitted via: CD2WAV32(EN) R3.19
#
DISCID=0e0f1324
DTITLE=NANASE Hikaru - Mito 2
DYEAR=1900
DGENRE=
TTITLE0=Cosmic Love TV
TTITLE1=Warera Uchu Kaizoku
TTITLE2=Hikari Toujou
TTITLE3=Sakusenshireishitsu
TTITLE4=Yamabushi
TTITLE5=Kamishiromura
TTITLE6=Kyusoku
TTITLE7=Tatake Uchukaizoku
TTITLE8=Tatake Uchukaizoku
TTITLE9=Ranban Noujou
TTITLE10=Kafuko tojou
TTITLE11=Kibou
TTITLE12=Danatsu
TTITLE13=Sobani itai
TTITLE14=Mitasarenai Omoi
TTITLE15=Seioukeno Higeki
TTITLE16=Tatakae Uchukaizoku 3
TTITLE17=Tatakae Uchukaizoku 4
TTITLE18=Aino catch 1
TTITLE19=Aino catch 2
TTITLE20=Aino catch 3
TTITLE21=Aino catch 4
TTITLE22=Aino catch 5
TTITLE23=Sabu no title
TTITLE24=Seicho Amanoharaondo
TTITLE25=Chiwakinikuodoru 2
TTITLE26=Odottemasu
TTITLE27=Ito nonbiri
TTITLE28=Kirakuni
TTITLE29=Anamoharatte
TTITLE30=Shinpino chikara
TTITLE31=Shinpino Rythm
TTITLE32=Gishikisen Dainagon
TTITLE33=Cosmic Battle
TTITLE34=Naishobanashiha
TTITLE35=Maarui Sora
EXTD=
EXTT0=
EXTT1=
EXTT2=
EXTT3=
EXTT4=
EXTT5=
EXTT6=
EXTT7=
EXTT8=
EXTT9=
EXTT10=
EXTT11=
EXTT12=
EXTT13=
EXTT14=
EXTT15=
EXTT16=
EXTT17=
EXTT18=
EXTT19=
EXTT20=
EXTT21=
EXTT22=
EXTT23=
EXTT24=
EXTT25=
EXTT26=
EXTT27=
EXTT28=
EXTT29=
EXTT30=
EXTT31=
EXTT32=
EXTT33=
EXTT34=
EXTT35=
PLAYORDER=
